<?xml version="1.0" encoding="UTF-8"?>
<svg id="Layer_1" xmlns="http://www.w3.org/2000/svg" viewBox="0 0 113.77 55.04">
  <defs>
    <style>
      .cls-1 {
        fill: #567c8d;
      }

      .cls-2 {
        stroke-linecap: round;
        stroke-linejoin: round;
      }

      .cls-2, .cls-3 {
        fill: none;
        stroke: #2f4156;
      }

      .cls-4 {
        fill: #ffecd1;
      }

      .cls-3 {
        stroke-miterlimit: 10;
      }
    </style>
  </defs>
  <g>
    <path class="cls-1" d="M7.49,13.67c.35,0,.82-.12,1.22-.12.42,0,.73.14.73.68,0,1.46-3.84.97-3.84,4.85,0,1.29.56,1.79,1.11,1.79.66,0,1.27-.8,1.79-.8s.78.87.78,1.46c0,2.8-2.17,3.65-4.5,3.65C1.27,25.19.07,23.87.07,22.15c0-2.07,1.58-4.59,1.58-5.84,0-1.18-1.65-.31-1.65-1.53s2.8.24,4.24-3.67c.19-.56.61-1.15,1.41-1.15,1.81.19.24,3.72,1.84,3.72Z"/>
    <path class="cls-1" d="M15.82,11.41c0,1.41-1.32,3.15-1.32,5.7,0,3.65,1.13,4.8,1.13,6.47,0,1.46-.66,2.66-2.68,2.66-2.17,0-2.99-.92-2.99-2.35,0-2.07,1.34-2.83,1.34-5.39,0-4.54-1.41-5.09-1.41-6.9,0-1.58.73-2.52,2.99-2.52s2.94.82,2.94,2.33Z"/>
    <path class="cls-1" d="M16.43,25.42c0-.38.09-.71.52-1.2.68-.82.99-2.28.99-6.76,0-3.48-.42-5.25-1.04-6.1-.28-.4-.42-.78-.42-1.11,0-.56.35-1.04,1.13-1.04.4,0,.8.14,1.11.42,1.08.99,1.29,1.51,2.24,1.51,1.65,0,3.41-1.98,5.6-1.98,3.79,0,4.47,2.5,4.47,8.29,0,6.19-1.55,9.11-4.47,9.11-1.72,0-3.3-1.15-3.72-1.55-.26-.26-1.13-1.11-1.93-1.11-1.48,0-1.11,2.61-3.25,2.61-.92,0-1.22-.75-1.22-1.11ZM20.39,14.03c0,.75.33,1.79.33,3.01s-.31,2.26-.31,3.06c0,.87.35,1.6,1.74,1.6,1.93,0,2.68-2.19,2.68-4.45,0-2.97-.82-4.43-2.78-4.43-1.22,0-1.67.38-1.67,1.2Z"/>
    <path class="cls-1" d="M43.51,11.53c0,.85-.47,1.74-.47,2.73,0,1.08.35,2.35.8,3.58.97,2.75,3.41,4.59,3.41,6.36,0,1.18-1.32,2.35-2.75,2.35-1.13,0-2.97-.47-2.97-1.93,0-.45.14-.9.14-1.34,0-1.08-1.06-1.86-2.61-1.86-1.32,0-2.43.61-2.43,1.79,0,.59.24.99.24,1.41,0,1.2-1.27,1.93-2.66,1.93-1.6,0-2.57-.8-2.57-2.05,0-2.64,3.93-6.88,3.93-10.05,0-.87-.49-1.86-.49-2.78,0-1.25.97-2.45,4.36-2.45,2.99,0,4.07,1.08,4.07,2.31ZM39.3,15.32c-.75,0-1.72,1.01-1.72,2.4,0,.73.47,1.69,1.53,1.69.9,0,1.51-.87,1.51-1.88,0-.68-.35-2.21-1.32-2.21Z"/>
    <path class="cls-1" d="M52.81,9.23c1.48,0,2.47.82,2.47,2.54,0,2.87-3.81,4.8-3.81,8.48,0,1.06.54,1.67,1.65,1.67,2.33,0,3.46-1.72,4.54-1.72.73,0,1.39.92,1.39,1.72,0,2.75-4.05,4.61-9.54,4.61-1.2,0-1.58-.59-1.58-1.32,0-4.12,2.1-5.65,2.1-12.76,0-1.7.82-3.23,2.78-3.23Z"/>
    <path class="cls-1" d="M7.49,41.93c.35,0,.82-.12,1.22-.12.42,0,.73.14.73.68,0,1.46-3.84.97-3.84,4.85,0,1.29.56,1.79,1.11,1.79.66,0,1.27-.8,1.79-.8s.78.87.78,1.46c0,2.8-2.17,3.65-4.5,3.65-3.51,0-4.71-1.32-4.71-3.04,0-2.07,1.58-4.59,1.58-5.84,0-1.18-1.65-.31-1.65-1.53s2.8.24,4.24-3.67c.19-.57.61-1.15,1.41-1.15,1.81.19.24,3.72,1.84,3.72Z"/>
    <path class="cls-1" d="M21.94,41.93c0,3.51-2.9,2.71-2.9,4.05,0,1.27,3.6,1.77,3.6,5.49,0,1.88-1.27,3.58-3.48,3.58-1.39,0-2.5-1.04-2.5-2.21,0-1.32,1.13-2.68,1.13-3.37,0-1.48-.87-2.02-1.88-2.02-1.18,0-1.74.82-1.74,1.65,0,1.2,1.01,2.59,1.01,3.81,0,.82-.61,2.03-2.75,2.03-1.04,0-2.4-.66-2.4-2.05s1.06-3.13,1.06-5.6c0-3.18-1.18-5.37-1.18-6.95,0-1.32.8-2.61,5.49-2.61,2.85,0,6.55,1.04,6.55,4.21ZM15.7,41.22c-.92,0-1.37.59-1.37,1.34,0,1.08.61,1.51,1.29,1.51.89,0,1.55-.66,1.55-1.72,0-.75-.68-1.13-1.48-1.13Z"/>
    <path class="cls-1" d="M35.13,43.58c0,6.71-6.12,4.38-6.12,6.31,0,.73.85,1.04,1.41,1.04,1.22,0,2.61-.94,2.92-1.25.59-.59.89-1.15,1.41-1.15.28,0,.45.21.45.52,0,3.34-2.9,4.78-5.39,4.78-4.38,0-6.64-3.39-6.64-8.45,0-4.59,1.88-7.44,6.83-7.44,3.41,0,5.13,2.02,5.13,5.65ZM32.37,46.36c0-.75-.75-1.06-1.39-1.06-1.46,0-2.26.75-2.26,1.53,0,.4.33.75.92.75,1.27,0,2.73-.26,2.73-1.22Z"/>
    <path class="cls-1" d="M46.38,39.79c0,.85-.47,1.74-.47,2.73,0,1.08.35,2.35.8,3.58.97,2.75,3.41,4.59,3.41,6.36,0,1.18-1.32,2.35-2.75,2.35-1.13,0-2.97-.47-2.97-1.93,0-.45.14-.89.14-1.34,0-1.08-1.06-1.86-2.61-1.86-1.32,0-2.43.61-2.43,1.79,0,.59.24.99.24,1.41,0,1.2-1.27,1.93-2.66,1.93-1.6,0-2.57-.8-2.57-2.05,0-2.64,3.93-6.88,3.93-10.05,0-.87-.49-1.86-.49-2.78,0-1.25.97-2.45,4.36-2.45,2.99,0,4.07,1.08,4.07,2.31ZM42.17,43.58c-.75,0-1.72,1.01-1.72,2.4,0,.73.47,1.7,1.53,1.7.9,0,1.51-.87,1.51-1.88,0-.68-.35-2.21-1.32-2.21Z"/>
    <path class="cls-1" d="M61.12,40.92c0,.56-.35.99-.82.99-1.08,0-.59-1.74-3.06-1.74-.57,0-1.18.38-1.18,1.01,0,2.24,5.39,1.72,5.39,6.71,0,4.54-2.9,6.17-5.77,6.17-3.41,0-5.37-1.84-5.37-4.19,0-.8.42-1.81,1.18-1.81s.54,1.37,2.54,1.37c.73,0,1.29-.47,1.29-1.25,0-2.59-3.86-1.27-3.86-6.03,0-2.31,1.72-4.24,4.8-4.24,2.57,0,4.85.89,4.85,3.01Z"/>
    <path class="cls-1" d="M68.56,39.72c0,3.67-1.81,5.79-1.81,7.89,0,2.33.94,3.58,2.73,3.58,1.93,0,2.52-1.34,2.52-3.6,0-1.55-1.74-4.83-1.74-7.3,0-1.53.75-2.92,2.75-2.92,2.99,0,3.7,3.67,3.7,6.99,0,5.7-.17,10.29-7.39,10.29-6.05,0-7.32-4.8-7.32-9.79,0-2.92.61-7.53,3.91-7.53,1.81,0,2.66.61,2.66,2.4Z"/>
    <path class="cls-1" d="M88.86,41.93c0,3.51-2.9,2.71-2.9,4.05,0,1.27,3.6,1.77,3.6,5.49,0,1.88-1.27,3.58-3.49,3.58-1.39,0-2.5-1.04-2.5-2.21,0-1.32,1.13-2.68,1.13-3.37,0-1.48-.87-2.02-1.88-2.02-1.18,0-1.74.82-1.74,1.65,0,1.2,1.01,2.59,1.01,3.81,0,.82-.61,2.03-2.75,2.03-1.04,0-2.4-.66-2.4-2.05s1.06-3.13,1.06-5.6c0-3.18-1.18-5.37-1.18-6.95,0-1.32.8-2.61,5.49-2.61,2.85,0,6.54,1.04,6.54,4.21ZM82.62,41.22c-.92,0-1.37.59-1.37,1.34,0,1.08.61,1.51,1.29,1.51.89,0,1.55-.66,1.55-1.72,0-.75-.68-1.13-1.48-1.13Z"/>
    <path class="cls-1" d="M102.05,43.58c0,6.71-6.12,4.38-6.12,6.31,0,.73.85,1.04,1.41,1.04,1.22,0,2.61-.94,2.92-1.25.59-.59.9-1.15,1.41-1.15.28,0,.45.21.45.52,0,3.34-2.9,4.78-5.39,4.78-4.38,0-6.64-3.39-6.64-8.45,0-4.59,1.88-7.44,6.83-7.44,3.41,0,5.13,2.02,5.13,5.65ZM99.29,46.36c0-.75-.75-1.06-1.39-1.06-1.46,0-2.26.75-2.26,1.53,0,.4.33.75.92.75,1.27,0,2.73-.26,2.73-1.22Z"/>
    <path class="cls-1" d="M113.44,40.92c0,.56-.35.99-.82.99-1.08,0-.59-1.74-3.06-1.74-.56,0-1.18.38-1.18,1.01,0,2.24,5.39,1.72,5.39,6.71,0,4.54-2.9,6.17-5.77,6.17-3.41,0-5.37-1.84-5.37-4.19,0-.8.42-1.81,1.18-1.81s.54,1.37,2.54,1.37c.73,0,1.29-.47,1.29-1.25,0-2.59-3.86-1.27-3.86-6.03,0-2.31,1.72-4.24,4.8-4.24,2.57,0,4.85.89,4.85,3.01Z"/>
  </g>
  <circle class="cls-4" cx="91.9" cy="18.62" r="15.58"/>
  <g>
    <circle class="cls-3" cx="81.31" cy="18.26" r="2.11"/>
    <path class="cls-3" d="M83.03,1.69l2.89,7.75c.37.99,1.29,1.66,2.34,1.7l8.27.35c1.7.07,2.4,2.22,1.06,3.27l-6.48,5.14c-.82.65-1.18,1.74-.89,2.75l2.22,7.97c.46,1.64-1.37,2.96-2.78,2.02l-6.9-4.57c-.88-.58-2.02-.58-2.89,0l-6.9,4.57c-1.42.94-3.24-.38-2.78-2.02l2.22-7.97c.28-1.01-.07-2.1-.89-2.75l-6.48-5.14c-1.33-1.06-.64-3.2,1.06-3.27l8.27-.35c1.05-.04,1.97-.71,2.34-1.7l2.89-7.75c.59-1.59,2.85-1.59,3.44,0Z"/>
    <path class="cls-2" d="M77.06,16.47l-.43-.12.43.12.43.12-.43-.12Z"/>
    <path class="cls-2" d="M71.63,14.9c-1.58-.44-2.86-.8-2.86-.8,0,0,1.28.36,2.86.8s2.86.8,2.86.8c0,0-1.28-.36-2.86-.8Z"/>
    <path class="cls-2" d="M81.31,13.75v-.44s0,.2,0,.44v.44s0-.2,0-.44Z"/>
    <path class="cls-2" d="M81.31,7.39v-2.76,5.53-2.76Z"/>
    <path class="cls-2" d="M91.34,15.03c1.66-.46,3-.84,3-.84,0,0-1.34.37-3,.84-1.66.46-3,.84-3,.84,0,0,1.34-.37,3-.84Z"/>
    <path class="cls-2" d="M85.6,16.76l.41-.11-.41.11-.41.11.41-.11Z"/>
    <path class="cls-2" d="M78.44,21.53l.27-.35-.27.35-.27.35.27-.35Z"/>
    <path class="cls-2" d="M75.13,26.54l1.64-2.48-1.64,2.48-1.64,2.48,1.64-2.48Z"/>
    <path class="cls-2" d="M83.97,21.53l-.26-.36.26.36.26.36-.26-.36Z"/>
    <path class="cls-2" d="M87.74,26.54l-1.74-2.39,1.74,2.39,1.74,2.39-1.74-2.39Z"/>
  </g>
</svg>